<svg xmlns="http://www.w3.org/2000/svg" xmlns:xlink="http://www.w3.org/1999/xlink" viewBox="0,0,256,256" width="64px" height="64px"><defs><clipPath id="clip-1"><path d="M0,256v-256h256v256zM161.3494,76.92722l-7.21612,-7.21612c1.72497,-4.02904 2.6162,-8.37021 2.6162,-12.81816c0,-18.11628 -14.74027,-32.85656 -32.85656,-32.85656c-18.11628,0 -32.85656,14.74027 -32.85656,32.85656c0,18.11628 14.74027,32.85656 32.85656,32.85656c4.44796,0 8.78502,-0.89123 12.81816,-2.6162l7.22023,7.22023c2.3246,2.32871 5.42133,3.61011 8.71109,3.61011c3.28976,0 6.38649,-1.28141 8.71109,-3.61011c2.32871,-2.3246 3.61011,-5.42133 3.61011,-8.71109c0,-3.29387 -1.28141,-6.3906 -3.61422,-8.7152z" id="overlayBgMask" fill="none"></path></clipPath></defs><g clip-path="url(#clip-1)" fill="none" fill-rule="nonzero" stroke="none" stroke-width="1" stroke-linecap="butt" stroke-linejoin="miter" stroke-miterlimit="10" stroke-dasharray="" stroke-dashoffset="0" font-family="none" font-weight="none" font-size="none" text-anchor="none" style="mix-blend-mode: normal"><g transform="scale(0.5,0.5)"><g><path d="M460.45,359.19v107.81c0,18.77768 -15.22232,34 -34,34h-340.9c-18.77768,0 -34,-15.22232 -34,-34v-107.81z" fill="#90d1bb"></path><path d="M460.45,146.07v213.12h-408.9v-314.19c0,-18.77768 15.22232,-34 34,-34h238.54v110.66c-0.00265,6.4774 2.56931,12.69026 7.14952,17.27048c4.58021,4.58021 10.79308,7.15218 17.27048,7.14952h111.94z" fill="#f7f5fb"></path><path d="M324.08,11v110.67c0,6.47567 2.57313,12.68596 7.15306,17.26401c4.57993,4.57805 10.79127,7.14864 17.26694,7.14599h112z" fill="#90d1bb"></path><path d="M344.67,322.1h-177.34c-3.22942,0 -6.32642,-1.28356 -8.60903,-3.56805c-2.28261,-2.28448 -3.56363,-5.38254 -3.56097,-8.61195v-1c0.01104,-55.68458 45.15542,-100.82 100.84,-100.82v0c55.69239,0 100.84,45.14761 100.84,100.84v1c-0.00552,6.7174 -5.4526,12.16 -12.17,12.16z" fill="#90d1bb"></path><path d="M261.57,501h-176c-18.77768,0 -34,-15.22232 -34,-34v-107.81h53.84c41.43602,57.78416 94.66144,106.11854 156.16,141.81z" fill="#84c1ab"></path><path d="M105.39,359.19h-53.84v-95.81c14.36765,33.81994 32.4236,65.95107 53.84,95.81z" fill="#e4e3e8"></path><path d="M426.45,507h-340.89c-22.09139,0 -40,-17.90861 -40,-40v-107.81c0,-3.31371 2.68629,-6 6,-6h408.89c3.31371,0 6,2.68629 6,6v107.81c0,22.09139 -17.90861,40 -40,40zM57.56,365.19v101.81c0,15.46397 12.53603,28 28,28h340.89c15.46397,0 28,-12.53603 28,-28v-101.81z" fill="#000000"></path><path d="M460.45,365.19h-408.89c-3.31371,0 -6,-2.68629 -6,-6v-183.65c0,-3.31371 2.68629,-6 6,-6c3.31371,0 6,2.68629 6,6v177.65h396.89v-201.11h-105.94c-16.79365,-0.01654 -30.40346,-13.62635 -30.42,-30.42v-104.66h-232.53c-15.46397,0 -28,12.53603 -28,28v83.73c0,3.31371 -2.68629,6 -6,6c-3.31371,0 -6,-2.68629 -6,-6v-83.73c0,-22.09139 17.90861,-40 40,-40h238.53c3.31371,0 6,2.68629 6,6v110.66c0.01102,10.16852 8.25148,18.40898 18.42,18.42h111.59c1.65102,-0.09648 3.26866,0.49281 4.47076,1.62866c1.2021,1.13584 1.88206,2.71751 1.87924,4.37134v213.11c0,3.31371 -2.68629,6 -6,6zM460.09,140.08h-0.2z" fill="#000000"></path><path d="M51.56,162.63c-3.31371,0 -6,-2.68629 -6,-6v-9c0,-3.31371 2.68629,-6 6,-6c3.31371,0 6,2.68629 6,6v9c0,3.31371 -2.68629,6 -6,6z" fill="#000000"></path><path d="M460.09,152.08h-111.59c-16.78975,-0.01653 -30.39795,-13.62026 -30.42,-30.41v-110.67c-0.00597,-2.42621 1.44983,-4.61723 3.68883,-5.55179c2.239,-0.93456 4.82048,-0.4287 6.54117,1.28179l136.36,135.08c1.67806,1.6626 2.22442,4.15509 1.39569,6.36717c-0.82872,2.21209 -2.87829,3.73206 -5.23569,3.88283c-0.24,0.02 -0.5,0.02 -0.74,0.02zM330.09,25.39v96.28c0.01103,10.16689 8.2531,18.40449 18.42,18.41h97.37z" fill="#000000"></path><path d="M344.67,328.1h-177.34c-10.03206,-0.01653 -18.15899,-8.14793 -18.17,-18.18v-1c0,-59.0061 47.8339,-106.84 106.84,-106.84c59.0061,0 106.84,47.8339 106.84,106.84v1c-0.01101,10.03207 -8.13794,18.16347 -18.17,18.18zM256,214.1c-52.35584,0.05512 -94.78488,42.48416 -94.84,94.84v1c0,3.40922 2.76079,6.17448 6.17,6.18h177.34c3.40921,-0.00552 6.17,-2.77078 6.17,-6.18v-1c-0.05512,-52.35584 -42.48416,-94.78488 -94.84,-94.84z" fill="#000000"></path><path d="M217.4,283c-3.31371,0 -6,-2.68629 -6,-6v-18.4c0,-3.31371 2.68629,-6 6,-6c3.31371,0 6,2.68629 6,6v18.4c0,3.31371 -2.68629,6 -6,6z" fill="#000000"></path><path d="M294.6,283c-3.31371,0 -6,-2.68629 -6,-6v-18.4c0,-3.31371 2.68629,-6 6,-6c3.31371,0 6,2.68629 6,6v18.4c0,3.31371 -2.68629,6 -6,6z" fill="#000000"></path><path d="M193.43,236.86c-1.59231,0.00639 -3.12029,-0.62787 -4.24,-1.76l-32.53,-32.52c-1.53718,-1.51063 -2.14607,-3.72964 -1.59512,-5.81324c0.55094,-2.0836 2.17706,-3.71163 4.26001,-4.26503c2.08295,-0.5534 4.30268,0.05287 5.81512,1.58827l32.53,32.53c1.71376,1.71589 2.22607,4.29474 1.2983,6.53539c-0.92777,2.24065 -3.11316,3.70248 -5.5383,3.70461z" fill="#000000"></path><path d="M318.57,236.86c-2.42513,-0.00213 -4.61053,-1.46396 -5.5383,-3.70461c-0.92777,-2.24065 -0.41547,-4.81949 1.2983,-6.53539l32.53,-32.53c1.51244,-1.5354 3.73217,-2.14167 5.81512,-1.58827c2.08295,0.5534 3.70907,2.18144 4.26001,4.26503c0.55094,2.0836 -0.05794,4.30261 -1.59512,5.81324l-32.53,32.52c-1.12414,1.12554 -2.64924,1.7586 -4.24,1.76z" fill="#000000"></path><path d="M193.55,383c-0.86519,-2.36578 -3.11598,-3.93923 -5.635,-3.93923c-2.51902,0 -4.76981,1.57345 -5.635,3.93923l-32.76,90c-1.08859,3.05419 0.44618,6.42071 3.46572,7.60203c3.01953,1.18132 6.43133,-0.24997 7.70428,-3.23203l12.05,-28.77h31.92l10.34,28.55c0.8455,2.39146 3.10349,3.99287 5.64,4c0.69991,-0.00034 1.39413,-0.12564 2.05,-0.37c1.49599,-0.54347 2.71474,-1.65908 3.38803,-3.10131c0.67329,-1.44223 0.74594,-3.09288 0.20197,-4.58869zM175.55,436.6l12.37,-34l12.38,34z" fill="#000000"></path><path d="M361.31,470.32l-36.38,-40.53l34.68,-38.63c2.04285,-2.48316 1.76502,-6.13531 -0.62996,-8.28086c-2.39498,-2.14556 -6.05558,-2.02169 -8.30004,0.28086l-38.16,42.51v-40.57c0,-3.31371 -2.68629,-6 -6,-6c-3.31371,0 -6,2.68629 -6,6v90c0,3.31371 2.68629,6 6,6c3.31371,0 6,-2.68629 6,-6v-31.48l4.35,-4.84l35.51,39.56c2.24446,2.30255 5.90506,2.42642 8.30004,0.28086c2.39498,-2.14556 2.67281,-5.7977 0.62996,-8.28086z" fill="#000000"></path><path d="M262.8,379.1h-24.9c-3.31371,0 -6,2.68629 -6,6v90c0,3.31371 2.68629,6 6,6c3.31371,0 6,-2.68629 6,-6v-34.21h18.9c11.1702,0.20097 21.57899,-5.64323 27.22291,-15.28481c5.64392,-9.64158 5.64392,-21.57881 0,-31.22038c-5.64392,-9.64158 -16.05271,-15.48578 -27.22291,-15.28481zM262.8,428.89h-18.9v-37.79h18.9c6.85416,-0.15769 13.25624,3.40879 16.72965,9.31978c3.47341,5.91099 3.47341,13.23946 0,19.15045c-3.47341,5.91099 -9.87549,9.47747 -16.72965,9.31978z" fill="#000000"></path></g></g></g><g fill="#ff0000" fill-rule="nonzero" stroke="none" stroke-width="1" stroke-linecap="butt" stroke-linejoin="miter" stroke-miterlimit="10" stroke-dasharray="" stroke-dashoffset="0" font-family="none" font-weight="none" font-size="none" text-anchor="none" style="mix-blend-mode: normal"><g transform="translate(99.25,32.25051) scale(4.10707,4.10707)" id="overlay"><path d="M13.707,12.293l-2.822,-2.822c0.699,-0.981 1.115,-2.177 1.115,-3.471c0,-3.309 -2.691,-6 -6,-6c-3.309,0 -6,2.691 -6,6c0,3.309 2.691,6 6,6c1.294,0 2.49,-0.416 3.471,-1.115l2.822,2.822c0.195,0.195 0.451,0.293 0.707,0.293c0.256,0 0.512,-0.098 0.707,-0.293c0.391,-0.391 0.391,-1.024 0,-1.414zM2,6c0,-2.206 1.794,-4 4,-4c2.206,0 4,1.794 4,4c0,2.206 -1.794,4 -4,4c-2.206,0 -4,-1.794 -4,-4z"></path></g></g></svg>